HIERARCHY
ROOT reference
{
  OFFSET 0 0 0
  CHANNELS 6 Xposition Yposition Zposition Zrotation Xrotation Yrotation
  JOINT Hips
  {
    OFFSET 349.773 89.4622 219.413
    CHANNELS 3 Zrotation Xrotation Yrotation
    JOINT RightUpLeg
    {
      OFFSET -9.25229 -1.56476 -0.00486621
      CHANNELS 3 Zrotation Xrotation Yrotation
      JOINT RightLeg
      {
        OFFSET 0.0546168 -41.8841 0.068862
        CHANNELS 3 Zrotation Xrotation Yrotation
        JOINT RightFoot
        {
          OFFSET -1.63893 -40.8901 3.53979
          CHANNELS 3 Zrotation Xrotation Yrotation
          End Site
          {
            OFFSET 0 -7.69 17.5
          }
        }
      }
    }
    JOINT LeftUpLeg
    {
      OFFSET 9.30241 -1.63853 -0.0284428
      CHANNELS 3 Zrotation Xrotation Yrotation
      JOINT LeftLeg
      {
        OFFSET 0.0539686 -41.842 -0.0517406
        CHANNELS 3 Zrotation Xrotation Yrotation
        JOINT LeftFoot
        {
          OFFSET 1.12518 -42.5382 -2.5849
          CHANNELS 3 Zrotation Xrotation Yrotation
          End Site
          {
            OFFSET 0 -7.69 17.5
          }
        }
      }
    }
    JOINT Spine
    {
      OFFSET 0.0144198 14.3187 0.0981135
      CHANNELS 3 Zrotation Xrotation Yrotation
      JOINT Spine1
      {
        OFFSET 0.0112165 9.7169 0.0514987
        CHANNELS 3 Zrotation Xrotation Yrotation
        JOINT Spine2
        {
          OFFSET 0.0255827 10.1205 -0.00638435
          CHANNELS 3 Zrotation Xrotation Yrotation
          JOINT Spine3
          {
            OFFSET -0.00190646 9.72552 0.024249
            CHANNELS 3 Zrotation Xrotation Yrotation
            JOINT Neck
            {
              OFFSET -0.136438 10.3681 0.0553958
              CHANNELS 3 Zrotation Xrotation Yrotation
              JOINT Head
              {
                OFFSET 0.0264476 9.5071 0.170402
                CHANNELS 3 Zrotation Xrotation Yrotation
                End Site
                {
                  OFFSET 0 15.95 0
                }
              }
            }
            JOINT RightShoulder
            {
              OFFSET -3.1747 6.92483 0.00547946
              CHANNELS 3 Zrotation Xrotation Yrotation
              JOINT RightArm
              {
                OFFSET -12.7755 -0.0136287 0.0362428
                CHANNELS 3 Zrotation Xrotation Yrotation
                JOINT RightForeArm
                {
                  OFFSET -26.5642 -0.108975 -0.0233747
                  CHANNELS 3 Zrotation Xrotation Yrotation
                  JOINT RightHand
                  {
                    OFFSET -25.905 -0.185223 0.00356295
                    CHANNELS 3 Zrotation Xrotation Yrotation
                    JOINT RightHandThumb1
                    {
                      OFFSET -2.48905 0.190105 3.12053
                      CHANNELS 3 Zrotation Xrotation Yrotation
                      JOINT RightHandThumb2
                      {
                        OFFSET -3.68274 0 0
                        CHANNELS 3 Zrotation Xrotation Yrotation
                        JOINT RightHandThumb3
                        {
                          OFFSET -2.55832 0 0
                          CHANNELS 3 Zrotation Xrotation Yrotation
                          End Site
                          {
                            OFFSET -2.194 0 0
                          }
                        }
                      }
                    }
                    JOINT RightInHandIndex
                    {
                      OFFSET -3.22368 0.508421 1.97842
                      CHANNELS 3 Zrotation Xrotation Yrotation
                      JOINT RightHandIndex1
                      {
                        OFFSET -5.21684 -0.091368 0.999158
                        CHANNELS 3 Zrotation Xrotation Yrotation
                        JOINT RightHandIndex2
                        {
                          OFFSET -3.61937 0 0
                          CHANNELS 3 Zrotation Xrotation Yrotation
                          JOINT RightHandIndex3
                          {
                            OFFSET -2.0521 0 0
                            CHANNELS 3 Zrotation Xrotation Yrotation
                            End Site
                            {
                              OFFSET -1.805 0 0
                            }
                          }
                        }
                      }
                    }
                    JOINT RightInHandMiddle
                    {
                      OFFSET -3.38211 0.517263 0.756737
                      CHANNELS 3 Zrotation Xrotation Yrotation
                      JOINT RightHandMiddle1
                      {
                        OFFSET -5.17411 -0.084 0.313895
                        CHANNELS 3 Zrotation Xrotation Yrotation
                        JOINT RightHandMiddle2
                        {
                          OFFSET -3.94947 0 0
                          CHANNELS 3 Zrotation Xrotation Yrotation
                          JOINT RightHandMiddle3
                          {
                            OFFSET -2.47579 0 0
                            CHANNELS 3 Zrotation Xrotation Yrotation
                            End Site
                            {
                              OFFSET -1.975 0 0
                            }
                          }
                        }
                      }
                    }
                    JOINT RightInHandRing
                    {
                      OFFSET -3.36516 0.537895 -0.128947
                      CHANNELS 3 Zrotation Xrotation Yrotation
                      JOINT RightHandRing1
                      {
                        OFFSET -4.63474 -0.022105 -0.478947
                        CHANNELS 3 Zrotation Xrotation Yrotation
                        JOINT RightHandRing2
                        {
                          OFFSET -3.44238 0 0
                          CHANNELS 3 Zrotation Xrotation Yrotation
                          JOINT RightHandRing3
                          {
                            OFFSET -2.3881 0 0
                            CHANNELS 3 Zrotation Xrotation Yrotation
                            End Site
                            {
                              OFFSET -1.857 0 0
                            }
                          }
                        }
                      }
                    }
                    JOINT RightInHandPinky
                    {
                      OFFSET -3.16105 0.469368 -1.20179
                      CHANNELS 3 Zrotation Xrotation Yrotation
                      JOINT RightHandPinky1
                      {
                        OFFSET -4.14105 -0.022105 -1.09053
                        CHANNELS 3 Zrotation Xrotation Yrotation
                        JOINT RightHandPinky2
                        {
                          OFFSET -2.75653 0 0
                          CHANNELS 3 Zrotation Xrotation Yrotation
                          JOINT RightHandPinky3
                          {
                            OFFSET -1.74189 0 0
                            CHANNELS 3 Zrotation Xrotation Yrotation
                            End Site
                            {
                              OFFSET -1.645 0 0
                            }
                          }
                        }
                      }
                    }
                  }
                }
              }
            }
            JOINT LeftShoulder
            {
              OFFSET 3.23079 6.93624 -0.032633
              CHANNELS 3 Zrotation Xrotation Yrotation
              JOINT LeftArm
              {
                OFFSET 12.8235 -0.00564763 -0.0637926
                CHANNELS 3 Zrotation Xrotation Yrotation
                JOINT LeftForeArm
                {
                  OFFSET 26.4641 -0.00020372 -0.0407631
                  CHANNELS 3 Zrotation Xrotation Yrotation
                  JOINT LeftHand
                  {
                    OFFSET 25.9912 -0.0207868 -0.0178714
                    CHANNELS 3 Zrotation Xrotation Yrotation
                    JOINT LeftHandThumb1
                    {
                      OFFSET 2.48905 0.190105 3.12053
                      CHANNELS 3 Zrotation Xrotation Yrotation
                      JOINT LeftHandThumb2
                      {
                        OFFSET 3.68274 0 0
                        CHANNELS 3 Zrotation Xrotation Yrotation
                        JOINT LeftHandThumb3
                        {
                          OFFSET 2.55832 0 0
                          CHANNELS 3 Zrotation Xrotation Yrotation
                          End Site
                          {
                            OFFSET 2.194 0 0
                          }
                        }
                      }
                    }
                    JOINT LeftInHandIndex
                    {
                      OFFSET 3.22368 0.508421 1.97842
                      CHANNELS 3 Zrotation Xrotation Yrotation
                      JOINT LeftHandIndex1
                      {
                        OFFSET 5.21684 -0.091368 0.999158
                        CHANNELS 3 Zrotation Xrotation Yrotation
                        JOINT LeftHandIndex2
                        {
                          OFFSET 3.61937 0 0
                          CHANNELS 3 Zrotation Xrotation Yrotation
                          JOINT LeftHandIndex3
                          {
                            OFFSET 2.0521 0 0
                            CHANNELS 3 Zrotation Xrotation Yrotation
                            End Site
                            {
                              OFFSET 1.805 0 0
                            }
                          }
                        }
                      }
                    }
                    JOINT LeftInHandMiddle
                    {
                      OFFSET 3.38211 0.517263 0.756737
                      CHANNELS 3 Zrotation Xrotation Yrotation
                      JOINT LeftHandMiddle1
                      {
                        OFFSET 5.17411 -0.084 0.313895
                        CHANNELS 3 Zrotation Xrotation Yrotation
                        JOINT LeftHandMiddle2
                        {
                          OFFSET 3.94947 0 0
                          CHANNELS 3 Zrotation Xrotation Yrotation
                          JOINT LeftHandMiddle3
                          {
                            OFFSET 2.47579 0 0
                            CHANNELS 3 Zrotation Xrotation Yrotation
                            End Site
                            {
                              OFFSET 1.975 0 0
                            }
                          }
                        }
                      }
                    }
                    JOINT LeftInHandRing
                    {
                      OFFSET 3.36516 0.537895 -0.128947
                      CHANNELS 3 Zrotation Xrotation Yrotation
                      JOINT LeftHandRing1
                      {
                        OFFSET 4.63474 -0.022105 -0.478947
                        CHANNELS 3 Zrotation Xrotation Yrotation
                        JOINT LeftHandRing2
                        {
                          OFFSET 3.44238 0 0
                          CHANNELS 3 Zrotation Xrotation Yrotation
                          JOINT LeftHandRing3
                          {
                            OFFSET 2.3881 0 0
                            CHANNELS 3 Zrotation Xrotation Yrotation
                            End Site
                            {
                              OFFSET 1.857 0 0
                            }
                          }
                        }
                      }
                    }
                    JOINT LeftInHandPinky
                    {
                      OFFSET 3.16105 0.469368 -1.20179
                      CHANNELS 3 Zrotation Xrotation Yrotation
                      JOINT LeftHandPinky1
                      {
                        OFFSET 4.14105 -0.022105 -1.09053
                        CHANNELS 3 Zrotation Xrotation Yrotation
                        JOINT LeftHandPinky2
                        {
                          OFFSET 2.75653 0 0
                          CHANNELS 3 Zrotation Xrotation Yrotation
                          JOINT LeftHandPinky3
                          {
                            OFFSET 1.74189 0 0
                            CHANNELS 3 Zrotation Xrotation Yrotation
                            End Site
                            {
                              OFFSET 1.645 0 0
                            }
                          }
                        }
                      }
                    }
                  }
                }
              }
            }
          }
        }
      }
    }
  }
}
MOTION
Frames:	4
Frame Time:	0.00833333
0 0 0 0 0 -0 22.5774 15.3333 -62.0017 -21.1016 -52.8762 -25.3929 -0.585524 26.2167 -18.2434 8.81455 5.80731 24.7041 11.3629 -46.8441 -8.12608 3.40166 31.1957 1.61378 -13.6325 -10.9774 -15.4532 -4.20475 16.2895 10.3609 -0.774814 4.03479 2.50898 -1.32217 6.41351 4.17629 -0.329494 -0.336754 -0.369745 -0.329824 -0.340142 -0.368 -6.35846 -6.40164 -6.5205 -0.713677 -15.0038 22.487 69.8525 2.44083 53.7643 10.1742 -46.922 -5.84152 17.3555 -22.2451 -18.8307 28.184 10.7294 19.1592 -5.33269e-15 -1.19271e-14 -10 -4.63166e-15 -7.95139e-15 -10 -2.64834e-31 -3.18055e-15 -4.77083e-15 19.9818 0.871897 2.3964 24 -1.51076e-14 1.27222e-14 20 -1.19271e-15 -2.22639e-14 -2.64834e-31 -3.18055e-15 -4.77083e-15 20 -3.18055e-15 9.54166e-15 24 -3.18055e-15 3.18055e-15 20 -4.77083e-15 -6.36111e-15 -2.64834e-31 -3.18055e-15 -4.77083e-15 19.9748 -1.02565 -2.81938 24 -4.77083e-15 1.59028e-14 20 -5.50385e-15 3.18055e-15 -2.64834e-31 -3.18055e-15 -4.77083e-15 19.7815 -3.00948 -8.30515 24 0 -0 20 9.93923e-16 -9.54166e-15 15.4623 -14.1342 -30.3191 -36.6941 33.1433 -70.3852 32.9906 -83.921 32.9443 -26.2702 -20.8085 6.32329 -28.184 10.7294 -19.1592 1.82758e-15 7.95139e-15 10 2.6688e-15 3.18055e-15 10 1.59028e-15 -3.18055e-15 -6.36111e-15 -19.9818 0.871897 -2.3964 -24 -8.34896e-15 9.54166e-15 -20 1.59028e-15 -1.27222e-14 1.59028e-15 -3.18055e-15 -6.36111e-15 -20 -3.18055e-15 -0 -24 -2.78299e-15 1.90833e-14 -20 -3.18055e-15 -2.22639e-14 1.59028e-15 -3.18055e-15 -6.36111e-15 -19.9748 -1.02565 2.81938 -24 -1.07344e-14 -9.54166e-15 -20 -4.77083e-15 9.54166e-15 1.59028e-15 -3.18055e-15 -6.36111e-15 -19.7815 -3.00948 8.30515 -24 -9.54166e-15 1.59028e-14 -20 -1.59028e-14 2.22639e-14 
0 0 0 0 0 -0 22.5799 15.3341 -62.0158 -21.0759 -52.8817 -25.3685 -0.593676 26.2191 -18.225 8.82297 5.80765 24.6967 11.3629 -46.8441 -8.12608 3.4105 31.2042 1.61392 -13.6325 -10.9774 -15.4532 -4.20377 16.2844 10.3606 -0.774814 4.03479 2.50898 -1.32217 6.41351 4.17629 -0.329494 -0.336754 -0.369745 -0.329824 -0.340142 -0.368 -6.35734 -6.39194 -6.52037 -0.713629 -14.9949 22.4989 69.8415 2.44249 53.771 10.1272 -46.9722 -5.91448 17.3869 -22.1949 -18.805 28.184 10.7294 19.1592 1.40204e-16 7.95139e-16 -10 3.51003e-15 1.59028e-15 -10 -3.18055e-15 -3.18055e-15 -7.95139e-15 19.9818 0.871897 2.3964 24 1.19271e-14 1.90833e-14 20 1.13307e-14 4.13472e-14 -3.18055e-15 -3.18055e-15 -7.95139e-15 20 -3.18055e-15 1.27222e-14 24 9.54166e-15 3.18055e-14 20 1.25234e-14 6.36111e-15 -3.18055e-15 -3.18055e-15 -7.95139e-15 19.9748 -1.02565 -2.81938 24 0 2.8625e-14 20 4.8578e-15 2.22639e-14 -3.18055e-15 -3.18055e-15 -7.95139e-15 19.7815 -3.00948 -8.30515 24 -4.77083e-15 1.27222e-14 20 1.05356e-14 9.54166e-15 15.4549 -14.1199 -30.317 -36.6792 33.146 -70.3902 33.1194 -83.9197 33.0713 -26.2873 -20.7915 6.32257 -28.184 10.7294 -19.1592 -3.51003e-15 1.59028e-15 10 -5.12484e-15 1.59028e-15 10 -6.36111e-15 0 -3.18055e-15 -19.9818 0.871897 -2.3964 -24 -6.55989e-15 -1.90833e-14 -20 6.36111e-15 -9.54166e-15 -6.36111e-15 0 -3.18055e-15 -20 0 -3.18055e-15 -24 3.97569e-15 1.27222e-14 -20 -3.18055e-15 -9.54166e-15 -6.36111e-15 0 -3.18055e-15 -19.9748 -1.02565 2.81938 -24 7.95139e-16 -9.54166e-15 -20 -3.18055e-15 -6.36111e-15 -6.36111e-15 0 -3.18055e-15 -19.7815 -3.00948 8.30515 -24 -7.95139e-15 6.36111e-15 -20 -1.27222e-14 3.18055e-15 
0 0 0 0 0 -0 22.5801 15.3415 -62.034 -21.0464 -52.8868 -25.3462 -0.602766 26.2218 -18.2044 8.83292 5.80811 24.6868 11.3742 -46.8447 -8.11761 3.42039 31.2157 1.61412 -13.6325 -10.9774 -15.4532 -4.20677 16.2791 10.3635 -0.774814 4.03479 2.50898 -1.32239 6.4135 4.17825 -0.329494 -0.336754 -0.369745 -0.329824 -0.340142 -0.368 -6.35865 -6.38046 -6.52022 -0.712407 -14.9889 22.5109 69.8273 2.44725 53.7843 10.1967 -46.9219 -5.82499 17.3317 -22.2777 -18.8347 28.184 10.7294 19.1592 -1.12164e-15 -6.36111e-15 -10 -6.73965e-15 -1.59028e-15 -10 -3.18055e-15 3.18055e-15 3.18055e-15 19.9818 0.871897 2.3964 24 -2.38542e-15 2.22639e-14 20 1.19271e-15 6.36111e-15 -3.18055e-15 3.18055e-15 3.18055e-15 20 3.18055e-15 6.36111e-15 24 3.18055e-15 3.18055e-14 20 9.34288e-15 -3.18055e-15 -3.18055e-15 3.18055e-15 3.18055e-15 19.9748 -1.02565 -2.81938 24 0 3.81667e-14 20 3.32964e-15 6.36111e-15 -3.18055e-15 3.18055e-15 3.18055e-15 19.7815 -3.00948 -8.30515 24 0 1.90833e-14 20 6.36111e-15 6.36111e-15 15.4504 -14.1051 -30.3148 -36.6944 33.1171 -70.3372 32.7227 -83.9115 32.6944 -26.295 -20.7911 6.32255 -28.184 10.7294 -19.1592 -7.30047e-15 4.77083e-15 10 6.95241e-15 6.36111e-15 10 -2.64834e-30 -1.59028e-14 -9.54166e-15 -19.9818 0.871897 -2.3964 -24 -9.93923e-16 -3.18055e-15 -20 6.36111e-15 -2.22639e-14 -2.64834e-30 -1.59028e-14 -9.54166e-15 -20 1.27222e-14 3.18055e-15 -24 -3.57812e-15 1.59028e-14 -20 -3.18055e-15 -6.36111e-15 -2.64834e-30 -1.59028e-14 -9.54166e-15 -19.9748 -1.02565 2.81938 -24 -1.03368e-14 -1.27222e-14 -20 4.77083e-15 9.54166e-15 -2.64834e-30 -1.59028e-14 -9.54166e-15 -19.7815 -3.00948 8.30515 -24 -3.97569e-15 1.59028e-14 -20 -9.54166e-15 2.22639e-14 
0 0 0 0 0 -0 22.5778 15.3502 -62.0602 -21.0023 -52.895 -25.3103 -0.618972 26.2212 -18.1831 8.8431 5.80838 24.681 11.4076 -46.8472 -8.08291 3.42147 31.218 1.61545 -13.6325 -10.9774 -15.4532 -4.21018 16.2742 10.3732 -0.774814 4.03479 2.50898 -1.3226 6.41348 4.18017 -0.329494 -0.336754 -0.369745 -0.329824 -0.340142 -0.368 -6.365 -6.37247 -6.52012 -0.713383 -14.9763 22.5243 69.8255 2.43585 53.7897 10.1489 -46.9771 -5.90297 17.3718 -22.2103 -18.8097 28.184 10.7294 19.1592 -1.40401e-14 -6.36111e-15 -10 -6.45924e-15 0 -10 -6.36111e-15 0 3.18055e-15 19.9818 0.871897 2.3964 24 -3.97569e-15 -2.22639e-14 20 0 -1.27222e-14 -6.36111e-15 0 3.18055e-15 20 -6.36111e-15 3.18055e-15 24 6.36111e-15 -3.18055e-15 20 3.67752e-15 -1.90833e-14 -6.36111e-15 0 3.18055e-15 19.9748 -1.02565 -2.81938 24 -3.18055e-15 3.18055e-15 20 -9.38015e-15 -1.59028e-14 -6.36111e-15 0 3.18055e-15 19.7815 -3.00948 -8.30515 24 -1.59028e-15 -9.54166e-15 20 0 -1.27222e-14 15.4454 -14.0904 -30.3126 -36.6151 33.1439 -70.3864 33.1643 -83.9524 33.1285 -26.296 -20.7924 6.32261 -28.184 10.7294 -19.1592 -1.12164e-15 6.36111e-15 10 -5.12484e-15 1.59028e-15 10 1.59028e-15 -6.36111e-15 -3.18055e-15 -19.9818 0.871897 -2.3964 -24 2.38542e-15 1.27222e-14 -20 1.59028e-15 -0 1.59028e-15 -6.36111e-15 -3.18055e-15 -20 -4.77083e-15 -6.36111e-15 -24 9.54166e-15 2.22639e-14 -20 0 -9.54166e-15 1.59028e-15 -6.36111e-15 -3.18055e-15 -19.9748 -1.02565 2.81938 -24 -1.15295e-14 -6.36111e-15 -20 1.59028e-15 -3.18055e-15 1.59028e-15 -6.36111e-15 -3.18055e-15 -19.7815 -3.00948 8.30515 -24 -5.56597e-15 1.59028e-14 -20 -1.59028e-14 2.22639e-14 
